<svg xmlns="http://www.w3.org/2000/svg" width="380" height="139" fill="none"><path fill="#fff" d="M313.956 1.087h53.924v14.954h-33.895v8.61h29.001V38.97h-29.001v9.516h34.529v14.953h-54.558V1.087zm-59.06 0h53.923v14.954h-33.895v8.61h29.001V38.97h-29.001v9.516h34.529v14.953h-54.557V1.087zm-54.105 0h50.389v14.954h-30.36v10.694h26.101v14.32H220.82v22.384h-20.029V1.087zm-54.103 0h50.389v14.954h-30.361v10.694h26.101v14.32h-26.101v22.384h-20.028V1.087zM108.532 0c10.755 0 19.062 2.749 24.923 8.247 5.86 5.498 8.791 13.504 8.791 24.017 0 10.512-2.931 18.518-8.791 24.016-5.861 5.498-14.168 8.247-24.923 8.247-10.754 0-19.062-2.719-24.922-8.157-5.8-5.498-8.7-13.533-8.7-24.106 0-10.574 2.9-18.58 8.7-24.017C89.47 2.75 97.778 0 108.531 0zm0 14.954c-4.29 0-7.552 1.299-9.788 3.897-2.235 2.598-3.353 6.102-3.353 10.512v5.8c0 4.411 1.118 7.915 3.353 10.513 2.236 2.598 5.498 3.897 9.788 3.897s7.552-1.299 9.788-3.897c2.296-2.598 3.444-6.102 3.444-10.512v-5.8c0-4.411-1.148-7.915-3.444-10.513-2.236-2.598-5.498-3.897-9.788-3.897z"/><path fill="#fff" d="M53.718 1.087H78.55L56.165 26.735 79.003 63.44H55.35L42.39 40.601l-10.875 8.882v13.956h-20.03V1.087h20.03v26.645L53.717 1.087zm208.165 75.44h53.923V91.48h-33.894v8.609h29v14.319h-29v9.516h34.529v14.954h-54.558V76.527zm-28.187 62.352-26.191-30.27v30.27h-18.398V76.527h17.492l26.191 30.723V76.527h18.397v62.352h-17.491zm-70.628 0-2.628-8.791h-21.842l-2.628 8.791h-20.482l22.748-62.352h23.291l22.748 62.352h-21.207zm-20.301-22.748h13.504l-6.525-22.204h-.363l-6.616 22.204z"/><path fill="#fff" d="M63.56 76.527h20.028v46.401h31.992v15.951H63.56V76.527z"/></svg>