<svg
    xmlns="http://www.w3.org/2000/svg"
    xmlnsXlink="http://www.w3.org/1999/xlink"
    viewBox="0 0 62 62"
    >
    <path
        d="M1.382 31C1.382 14.647 14.639 1.39 30.992 1.39C47.346 1.39 60.603 14.647 60.603 31C60.603 47.353 47.346 60.61 30.992 60.61C14.639 60.61 1.382 47.353 1.382 31Z"
        fill="rgb(147, 243, 170)"
        stroke="rgb(29, 26, 64)"
        strokeWidth="0.779221"
        strokeLinejoin="round"
    />
    <path
        d="M22.195 25.145C22.195 18.714 23.403 13.5 24.893 13.5C26.382 13.5 27.59 18.714 27.59 25.145C27.59 31.576 26.382 36.79 24.893 36.79C23.403 36.79 22.195 31.576 22.195 25.145Z"
        fill="rgb(30,27,64)"
        stroke="rgb(29, 26, 64)"
        strokeWidth="0.48"
        strokeLinejoin="round"
    />
    <path
        d="M34.949 25.145C34.949 18.714 36.157 13.5 37.647 13.5C39.136 13.5 40.344 18.714 40.344 25.145C40.344 31.576 39.136 36.79 37.647 36.79C36.157 36.79 34.949 31.576 34.949 25.145Z"
        fill="rgb(30,27,64)"
        stroke="rgb(29, 26, 64)"
        strokeWidth="0.48"
        strokeLinejoin="round"
    />
    <path
        d="M50.601 39.29C47.433 46.161 39.849 51 30.996 51C22.143 51 14.559 46.161 11.391 39.29M50.601 39.29C51.27 39.676 52.034 39.677 52.543 39.347M50.601 39.29C49.932 38.904 49.55 38.243 49.581 37.637M11.391 39.29C10.722 39.676 9.959 39.677 9.449 39.347M11.391 39.29C12.06 38.903 12.443 38.243 12.412 37.637"
        fill="none"
        stroke="rgb(29, 26, 64)"
        strokeWidth="0.779221"
        strokeLinejoin="round"
    />
</svg>
