  <svg
    xmlns="http://www.w3.org/2000/svg"
    xmlnsXlink="http://www.w3.org/1999/xlink"
    viewBox="0 0 62 62"
    >
    <path
        d="M1.382 31C1.382 14.647 14.639 1.39 30.992 1.39C47.346 1.39 60.603 14.647 60.603 31C60.603 47.353 47.346 60.61 30.992 60.61C14.639 60.61 1.382 47.353 1.382 31Z"
        fill="#93F3AA"
        stroke="#1D1A40"
        strokeWidth="0.779221"
        strokeLinejoin="round"
    />
    <path
        d="M22.195 25.145C22.195 18.714 23.403 13.5 24.893 13.5C26.382 13.5 27.59 18.714 27.59 25.145C27.59 31.576 26.382 36.79 24.893 36.79C23.403 36.79 22.195 31.576 22.195 25.145Z"
        fill="#1E1B40"
        stroke="#1D1A40"
        strokeWidth="0.48"
        strokeLinejoin="round"
    />
    <path
        d="M35 25C35 24.4477 36.1196 24 37.5005 24C38.8804 24 40 24.4477 40 25C40 25.5523 38.8804 26 37.5005 26C36.1196 26 35 25.5523 35 25Z"
        fill="#1E1B40"
        stroke="#1D1A40"
        strokeWidth="0.48"
        strokeLinejoin="round"
    />
    <path
        d="M50.601 39.29C47.433 46.161 39.849 51 30.996 51C22.143 51 14.559 46.161 11.391 39.29M50.601 39.29C51.27 39.676 52.034 39.677 52.543 39.347M50.601 39.29C49.932 38.904 49.55 38.243 49.581 37.637M11.391 39.29C10.722 39.676 9.959 39.677 9.449 39.347M11.391 39.29C12.06 38.903 12.443 38.243 12.412 37.637"
        fill="none"
        stroke="#1D1A40"
        strokeWidth="0.779221"
        strokeLinejoin="round"
    />
</svg>